<svg width="60" height="60" viewBox="0 0 60 60" fill="none" xmlns="http://www.w3.org/2000/svg">
<path d="M30 60C46.5685 60 60 46.5685 60 30C60 13.4315 46.5685 0 30 0C13.4315 0 0 13.4315 0 30C0 46.5685 13.4315 60 30 60Z" fill="#D34B4B"/>
<path fill-rule="evenodd" clip-rule="evenodd" d="M15.8834 16.5944C16.8634 15.6167 18.1912 15.0676 19.5756 15.0676C20.9599 15.0676 22.2877 15.6167 23.2677 16.5944L30.0154 23.3396L36.7452 16.5944C37.7256 15.6173 39.0532 15.0687 40.4374 15.0687C41.8215 15.0687 43.1492 15.6173 44.1295 16.5944C45.1072 17.5744 45.6563 18.9022 45.6563 20.2866C45.6563 21.6709 45.1072 22.9987 44.1295 23.9787L37.3767 30.7111L44.1219 37.4562C45.099 38.4366 45.6476 39.7643 45.6476 41.1484C45.6476 42.5325 45.099 43.8602 44.1219 44.8405C43.1415 45.8176 41.8138 46.3663 40.4297 46.3663C39.0456 46.3663 37.7179 45.8176 36.7376 44.8405L30.0001 38.0877L23.2677 44.8329C22.2874 45.81 20.9597 46.3586 19.5756 46.3586C18.1914 46.3586 16.8638 45.81 15.8834 44.8329C14.9063 43.8525 14.3577 42.5249 14.3577 41.1407C14.3577 39.7566 14.9063 38.4289 15.8834 37.4486L22.6235 30.7111L15.8834 23.9634C14.9104 22.9841 14.3642 21.6595 14.3642 20.2789C14.3642 18.8983 14.9104 17.5738 15.8834 16.5944Z" fill="white"/>
</svg>
