<svg width="88" height="88" viewBox="0 0 88 88" fill="none" xmlns="http://www.w3.org/2000/svg">
<path d="M74.9018 53.878C74.3374 53.5631 73.7308 53.3306 73.1005 53.1878V34.8508C73.7413 34.7096 74.3583 34.4762 74.932 34.1578H74.9458C75.8075 33.6679 76.5531 32.9975 77.1315 32.1925C77.7099 31.3876 78.1074 30.4671 78.2967 29.4941C78.486 28.5211 78.4627 27.5187 78.2284 26.5556C77.994 25.5925 77.5542 24.6914 76.939 23.9142C76.3239 23.137 75.5479 22.502 74.6644 22.0527C73.7808 21.6034 72.8106 21.3505 71.8201 21.3113C70.8297 21.2721 69.8425 21.4475 68.9262 21.8256C68.0099 22.2036 67.1862 22.7753 66.5115 23.5015L50.5835 14.333C50.7849 13.6986 50.8905 13.0378 50.897 12.3723C50.9119 11.3749 50.7103 10.3861 50.3059 9.47428C49.9015 8.56243 49.3041 7.74918 48.5548 7.09068C47.8056 6.43218 46.9224 5.9441 45.9662 5.66014C45.0099 5.37618 44.0035 5.3031 43.0163 5.44594C42.0291 5.58879 41.0846 5.94415 40.2481 6.48751C39.4116 7.03087 38.7029 7.74928 38.1711 8.59315C37.6392 9.43702 37.2968 10.3862 37.1675 11.3753C37.0382 12.3644 37.125 13.3698 37.422 14.322L21.4913 23.496C21.0458 23.019 20.5347 22.6079 19.9733 22.275C19.1193 21.766 18.1652 21.4483 17.1766 21.3437C16.188 21.2392 15.1885 21.3502 14.2469 21.6693C13.3054 21.9883 12.4443 22.5077 11.7229 23.1918C11.0015 23.8758 10.4371 24.7081 10.0685 25.6314C9.69985 26.5546 9.53584 27.5468 9.58775 28.5396C9.63966 29.5323 9.90624 30.502 10.3691 31.3818C10.832 32.2616 11.4802 33.0305 12.269 33.6355C13.0578 34.2406 13.9684 34.6674 14.938 34.8865V53.1878C14.2987 53.3309 13.6836 53.5662 13.112 53.8863C12.3304 54.3388 11.6455 54.9408 11.0964 55.658C10.5474 56.3752 10.1451 57.1935 9.9123 58.0662C9.67954 58.9389 9.62095 59.8489 9.73987 60.7442C9.85879 61.6396 10.1529 62.5027 10.6054 63.2844C11.0579 64.0661 11.6599 64.751 12.3771 65.3C13.0943 65.849 13.9126 66.2513 14.7853 66.4841C15.658 66.7169 16.568 66.7755 17.4634 66.6565C18.3587 66.5376 19.2219 66.2435 20.0035 65.791C20.5609 65.4605 21.0676 65.0511 21.5078 64.5755L37.4165 73.7C37.0965 74.7241 37.024 75.8095 37.2052 76.867C37.3864 77.9245 37.816 78.9238 38.4587 79.7829C39.1015 80.642 39.9389 81.3363 40.9022 81.8087C41.8656 82.281 42.9273 82.518 44 82.5H44.0385C45.1269 82.5107 46.202 82.2596 47.173 81.7679C48.1441 81.2761 48.9827 80.5581 49.6181 79.6744C50.2535 78.7906 50.6672 77.7671 50.8242 76.69C50.9812 75.6129 50.877 74.5139 50.5203 73.4855L66.3273 64.3858C66.9863 65.1367 67.8011 65.7349 68.7148 66.1389C69.6286 66.5428 70.6195 66.7427 71.6184 66.7247C72.6173 66.7067 73.6003 66.4712 74.4989 66.0346C75.3976 65.598 76.1903 64.9708 76.8218 64.1966C77.4533 63.4224 77.9085 62.5199 78.1557 61.5519C78.4029 60.5839 78.4362 59.5736 78.2532 58.5914C78.0701 57.6093 77.6753 56.6788 77.096 55.8648C76.5167 55.0507 75.767 54.3728 74.899 53.878H74.9018ZM23.2183 58.2038C22.9489 56.9173 22.2742 55.7511 21.2933 54.8763L42.1053 18.9475C42.7193 19.1377 43.3573 19.2396 44 19.25H44.0385C44.6727 19.2414 45.3024 19.1423 45.9085 18.9558L66.715 54.879C65.7357 55.7563 65.0614 56.9228 64.79 58.2093L23.2183 58.2038ZM64.8588 26.3175C64.6034 27.2035 64.5297 28.132 64.6422 29.0472C64.7547 29.9624 65.051 30.8454 65.5133 31.6432C65.9757 32.4411 66.5945 33.1372 67.3327 33.6898C68.0708 34.2424 68.913 34.6401 69.8088 34.859V53.1658C69.718 53.1878 69.63 53.207 69.5338 53.2318L48.7603 17.3388C48.8235 17.2783 48.8895 17.2233 48.95 17.16L64.8588 26.3175ZM39.05 17.1518C39.1133 17.215 39.182 17.2755 39.248 17.3388L18.4718 53.229L18.1968 53.152V34.87C19.0939 34.6516 19.9376 34.2537 20.6768 33.7005C21.4161 33.1472 22.0356 32.45 22.4982 31.6508C22.9607 30.8517 23.2566 29.9671 23.3681 29.0505C23.4796 28.1339 23.4043 27.2042 23.1468 26.3175L39.05 17.1518ZM49.0875 71.0188C48.4559 70.3186 47.6867 69.7563 46.8279 69.3669C45.9691 68.9775 45.0393 68.7695 44.0964 68.7558C43.1536 68.7422 42.2181 68.9231 41.3484 69.2874C40.4786 69.6517 39.6934 70.1915 39.0418 70.873L23.1578 61.732L23.232 61.457H64.757C64.7955 61.611 64.8478 61.7568 64.8945 61.9053L49.0875 71.0188Z" fill="#E10098"/>
<path d="M72.0775 73.6753L73.513 72.27C80.1488 72.4845 80.2505 72.2535 80.542 71.5825L82.3652 67.2045L82.5 66.7893L82.3515 66.4263C82.2745 66.2365 82.0325 65.6645 77.891 61.7678V59.719C82.6705 55.1788 82.566 54.945 82.291 54.2795L80.476 49.8575C80.201 49.1948 80.0993 48.9363 73.5103 49.1123L72.0775 47.652C72.2253 45.4995 72.1497 43.3374 71.852 41.2005L71.6678 40.7853L66.9268 38.7448C66.231 38.4285 65.9835 38.3158 61.5093 43.1228L59.499 43.0925C54.89 38.2415 54.6727 38.3295 53.9825 38.6045L49.5825 40.3618C48.8923 40.6368 48.6475 40.7358 48.917 47.3358L47.4925 48.7328C40.8595 48.5183 40.7577 48.752 40.469 49.4203L38.643 53.7983L38.5 54.219L38.6485 54.5848C38.7282 54.7718 38.9593 55.3383 43.1118 59.2378V61.281C38.3323 65.8213 38.4367 66.055 38.7117 66.7205L40.524 71.148C40.799 71.8245 40.9007 72.0665 47.487 71.896L48.9225 73.3645C48.7733 75.514 48.8461 77.6732 49.1397 79.8078L49.324 80.2257L54.0952 82.28C54.7882 82.555 55.0275 82.6677 59.4907 77.88L61.501 77.9048C66.1155 82.7612 66.352 82.6677 67.0257 82.3982L71.4258 80.6465C72.1133 80.3742 72.3552 80.278 72.0775 73.6753ZM53.1795 63.4233C52.8115 62.4633 52.638 61.4398 52.669 60.4122C52.7001 59.3845 52.935 58.3734 53.3603 57.4374C53.7856 56.5014 54.3926 55.6592 55.1462 54.9599C55.8998 54.2606 56.7849 53.718 57.75 53.3638C59.6961 52.6289 61.853 52.6878 63.7561 53.5277C65.6593 54.3677 67.1564 55.9215 67.925 57.8545C68.6617 59.7655 68.6125 61.8904 67.7881 63.7652C66.9638 65.6401 65.4312 67.1128 63.525 67.8618C61.563 68.6261 59.3793 68.5891 57.4442 67.7589C55.5092 66.9288 53.9776 65.3717 53.1795 63.4233Z" fill="#99B8C4"/>
</svg>
