<svg width="60" height="60" viewBox="0 0 60 60" fill="none" xmlns="http://www.w3.org/2000/svg">
<path d="M30 60C46.5685 60 60 46.5685 60 30C60 13.4315 46.5685 0 30 0C13.4315 0 0 13.4315 0 30C0 46.5685 13.4315 60 30 60Z" fill="#FAAD41"/>
<path d="M29.9742 40.7613C28.47 40.7613 27.233 39.5773 27.1668 38.0746L24.5756 13.0714C24.3398 9.93079 26.8245 7.25269 29.9742 7.25269C33.1239 7.25269 35.6086 9.93079 35.3728 13.0714L32.7815 38.0746C32.7154 39.5773 31.4783 40.7613 29.9742 40.7613Z" fill="white"/>
<path d="M29.9733 52.6936C32.4462 52.6936 34.4509 50.6889 34.4509 48.2159C34.4509 45.743 32.4462 43.7383 29.9733 43.7383C27.5003 43.7383 25.4956 45.743 25.4956 48.2159C25.4956 50.6889 27.5003 52.6936 29.9733 52.6936Z" fill="white"/>
<path d="M29.9742 7.25269C29.4466 7.25269 28.9402 7.33398 28.4595 7.47384C30.8478 8.16912 32.5392 10.4569 32.3433 13.0714L29.7521 38.0746C29.7107 39.0204 29.2037 39.8388 28.4595 40.3165C28.8972 40.5977 29.4173 40.7613 29.9742 40.7613C31.4784 40.7613 32.7155 39.5773 32.7816 38.0746L35.3729 13.0714C35.6087 9.93079 33.1239 7.25269 29.9742 7.25269Z" fill="white"/>
<path d="M29.9742 43.7405C29.4415 43.7405 28.9331 43.8384 28.4595 44.0086C30.1858 44.6302 31.4224 46.2772 31.4224 48.2176C31.4224 50.158 30.1858 51.8056 28.4595 52.4277C28.9331 52.5978 29.4415 52.6958 29.9742 52.6958C32.4473 52.6958 34.4519 50.6912 34.4519 48.2181C34.4519 45.745 32.4473 43.7405 29.9742 43.7405Z" fill="white"/>
</svg>
