<svg width="78" height="78" viewBox="0 0 78 78" fill="none" xmlns="http://www.w3.org/2000/svg">
<g clip-path="url(#clip0_414_357)">
<path d="M3.90005 75.4C3.12005 75.4 2.6001 74.88 2.6001 74.1V1.29995C2.6001 0.519949 3.12005 0 3.90005 0C4.68005 0 5.2 0.519949 5.2 1.29995V74.1C5.2 74.88 4.68005 75.4 3.90005 75.4Z" fill="#7383BF"/>
<path d="M76.7001 75.3999H3.90005C3.12005 75.3999 2.6001 74.88 2.6001 74.1C2.6001 73.32 3.12005 72.8 3.90005 72.8H76.7001C77.4801 72.8 78.0001 73.32 78.0001 74.1C78.0001 74.88 77.4801 75.3999 76.7001 75.3999Z" fill="#7383BF"/>
<path d="M6.50005 6.50005H1.29995C0.519949 6.50005 0 5.97995 0 5.19995C0 4.41995 0.519949 3.9 1.29995 3.9H6.4999C7.2799 3.9 7.79985 4.41995 7.79985 5.19995C7.79985 5.97995 7.28005 6.50005 6.50005 6.50005Z" fill="#7383BF"/>
<path d="M6.50005 13H1.29995C0.519949 13 0 12.48 0 11.7C0 10.92 0.519949 10.4001 1.29995 10.4001H6.4999C7.2799 10.4001 7.79985 10.92 7.79985 11.7C7.79985 12.48 7.28005 13 6.50005 13Z" fill="#7383BF"/>
<path d="M6.50005 19.5H1.29995C0.519949 19.5 0 18.9801 0 18.2001C0 17.4201 0.519949 16.9001 1.29995 16.9001H6.4999C7.2799 16.9001 7.79985 17.4201 7.79985 18.2001C7.79985 18.9801 7.28005 19.5 6.50005 19.5Z" fill="#7383BF"/>
<path d="M6.50005 26H1.29995C0.519949 26 0 25.4801 0 24.7001C0 23.9201 0.519949 23.4001 1.29995 23.4001H6.4999C7.2799 23.4001 7.79985 23.9201 7.79985 24.7001C7.8 25.4799 7.28005 26 6.50005 26Z" fill="#7383BF"/>
<path d="M6.50005 32.4999H1.29995C0.519949 32.4999 0 31.98 0 31.2C0 30.42 0.519949 29.9 1.29995 29.9H6.4999C7.2799 29.9 7.79985 30.42 7.79985 31.2C7.8 31.98 7.28005 32.4999 6.50005 32.4999Z" fill="#7383BF"/>
<path d="M6.50005 39H1.29995C0.519949 39 0 38.48 0 37.7C0 36.92 0.519949 36.4001 1.29995 36.4001H6.4999C7.2799 36.4001 7.79985 36.92 7.79985 37.7C7.8 38.48 7.28005 39 6.50005 39Z" fill="#7383BF"/>
<path d="M6.50005 45.5H1.29995C0.519949 45.5 0 44.9801 0 44.2001C0 43.4201 0.519949 42.9001 1.29995 42.9001H6.4999C7.2799 42.9001 7.79985 43.4201 7.79985 44.2001C7.8 44.9799 7.28005 45.5 6.50005 45.5Z" fill="#7383BF"/>
<path d="M6.50005 52H1.29995C0.519949 52 0 51.48 0 50.7C0 49.92 0.519949 49.4001 1.29995 49.4001H6.4999C7.2799 49.4001 7.79985 49.92 7.79985 50.7C7.79985 51.48 7.28005 52 6.50005 52Z" fill="#7383BF"/>
<path d="M6.50005 58.5H1.29995C0.519949 58.5 0 57.9801 0 57.2001C0 56.4201 0.519949 55.9001 1.29995 55.9001H6.4999C7.2799 55.9001 7.79985 56.4201 7.79985 57.2001C7.8 57.9801 7.28005 58.5 6.50005 58.5Z" fill="#7383BF"/>
<path d="M6.50005 65H1.29995C0.519949 65 0 64.4801 0 63.7001C0 62.9201 0.519949 62.4001 1.29995 62.4001H6.4999C7.2799 62.4001 7.79985 62.9201 7.79985 63.7001C7.79985 64.4801 7.28005 65 6.50005 65Z" fill="#7383BF"/>
<path d="M3.9 71.5H1.29995C0.519949 71.5 0 70.98 0 70.2C0 69.42 0.519949 68.9001 1.29995 68.9001H3.9C4.68 68.9001 5.19995 69.42 5.19995 70.2C5.19995 70.98 4.68 71.5 3.9 71.5Z" fill="#7383BF"/>
<path d="M9.1 78C8.32 78 7.80005 77.4801 7.80005 76.7001V71.5001C7.80005 70.7201 8.32 70.2001 9.1 70.2001C9.88 70.2001 10.3999 70.7201 10.3999 71.5001V76.7001C10.4001 77.4801 9.88 78 9.1 78Z" fill="#7383BF"/>
<path d="M15.6 78C14.82 78 14.3 77.4801 14.3 76.7001V71.5001C14.3 70.7201 14.82 70.2001 15.6 70.2001C16.38 70.2001 16.8999 70.7201 16.8999 71.5001V76.7001C16.8999 77.4801 16.38 78 15.6 78Z" fill="#7383BF"/>
<path d="M22.1 78C21.32 78 20.8 77.4801 20.8 76.7001V71.5001C20.8 70.7201 21.32 70.2001 22.1 70.2001C22.88 70.2001 23.3999 70.7201 23.3999 71.5001V76.7001C23.3999 77.4801 22.88 78 22.1 78Z" fill="#7383BF"/>
<path d="M28.6 78C27.82 78 27.3 77.4801 27.3 76.7001V71.5001C27.3 70.7201 27.82 70.2001 28.6 70.2001C29.38 70.2001 29.8999 70.7201 29.8999 71.5001V76.7001C29.9001 77.4801 29.38 78 28.6 78Z" fill="#7383BF"/>
<path d="M35.1 78C34.32 78 33.8 77.4801 33.8 76.7001V71.5001C33.8 70.7201 34.32 70.2001 35.1 70.2001C35.88 70.2001 36.3999 70.7201 36.3999 71.5001V76.7001C36.3999 77.4801 35.88 78 35.1 78Z" fill="#7383BF"/>
<path d="M41.6 78C40.82 78 40.3 77.4801 40.3 76.7001V71.5001C40.3 70.7201 40.82 70.2001 41.6 70.2001C42.38 70.2001 42.8999 70.7201 42.8999 71.5001V76.7001C42.8999 77.4801 42.38 78 41.6 78Z" fill="#7383BF"/>
<path d="M48.1 78C47.32 78 46.8 77.4801 46.8 76.7001V71.5001C46.8 70.7201 47.32 70.2001 48.1 70.2001C48.88 70.2001 49.3999 70.7201 49.3999 71.5001V76.7001C49.4001 77.4801 48.88 78 48.1 78Z" fill="#7383BF"/>
<path d="M54.6 78C53.82 78 53.3 77.4801 53.3 76.7001V71.5001C53.3 70.7201 53.82 70.2001 54.6 70.2001C55.38 70.2001 55.8999 70.7201 55.8999 71.5001V76.7001C55.8999 77.4801 55.38 78 54.6 78Z" fill="#7383BF"/>
<path d="M61.1 78C60.32 78 59.8 77.4801 59.8 76.7001V71.5001C59.8 70.7201 60.32 70.2001 61.1 70.2001C61.88 70.2001 62.3999 70.7201 62.3999 71.5001V76.7001C62.3999 77.4801 61.88 78 61.1 78Z" fill="#7383BF"/>
<path d="M67.6 78C66.82 78 66.3 77.4801 66.3 76.7001V71.5001C66.3 70.7201 66.82 70.2001 67.6 70.2001C68.38 70.2001 68.8999 70.7201 68.8999 71.5001V76.7001C68.9001 77.4801 68.38 78 67.6 78Z" fill="#7383BF"/>
<path d="M74.1 78C73.32 78 72.8 77.4801 72.8 76.7001V71.5001C72.8 70.7201 73.32 70.2001 74.1 70.2001C74.88 70.2001 75.3999 70.7201 75.3999 71.5001V76.7001C75.3999 77.4801 74.88 78 74.1 78Z" fill="#7383BF"/>
<path d="M22.1 65.0001H11.7V47.8401C11.7 47.3201 12.2199 46.8 12.74 46.8H21.06C21.5799 46.8 22.1 47.32 22.1 47.8401V65.0001Z" fill="#DD342E"/>
<path d="M39 65.0001H28.6V24.4401C28.6 23.9201 29.1199 23.4 29.64 23.4H37.96C38.4799 23.4 39 23.92 39 24.4401V65.0001Z" fill="#ECBA16"/>
<path d="M55.8999 65H45.4999V34.8399C45.4999 34.32 46.0198 33.7999 46.5399 33.7999H54.8599C55.3798 33.7999 55.8999 34.3198 55.8999 34.8399V65Z" fill="#42B05C"/>
<path d="M72.8001 65H62.4V15.3399C62.4 14.82 62.92 14.2999 63.4401 14.2999H71.76C72.28 14.2999 72.8001 14.8198 72.8001 15.3399V65Z" fill="#DD342E"/>
<path d="M27.3 7.8H20.7999C20.0199 7.8 19.5 7.28005 19.5 6.50005C19.5 5.72005 20.0199 5.2001 20.7999 5.2001H27.3C28.08 5.2001 28.5999 5.72005 28.5999 6.50005C28.5999 7.28005 28.08 7.8 27.3 7.8Z" fill="#DD342E"/>
<path d="M15.6 7.8H14.3001C13.5201 7.8 13.0001 7.28005 13.0001 6.50005C13.0001 5.72005 13.5201 5.2001 14.3001 5.2001H15.6C16.38 5.2001 16.9 5.72005 16.9 6.50005C16.9 7.28005 16.38 7.8 15.6 7.8Z" fill="#ECBA16"/>
<path d="M19.5 13H14.3001C13.5201 13 13.0001 12.48 13.0001 11.7C13.0001 10.92 13.5201 10.4001 14.3001 10.4001H19.5C20.28 10.4001 20.8 10.92 20.8 11.7C20.8 12.48 20.28 13 19.5 13Z" fill="#42B05C"/>
<path d="M27.3 13H24.7C23.92 13 23.4 12.48 23.4 11.7C23.4 10.92 23.92 10.4001 24.7 10.4001H27.3C28.08 10.4001 28.6 10.92 28.6 11.7C28.6 12.48 28.08 13 27.3 13Z" fill="#7383BF"/>
</g>
<defs>
<clipPath id="clip0_414_357">
<rect width="78" height="78" fill="white"/>
</clipPath>
</defs>
</svg>
