<?xml version="1.0" encoding="UTF-8"?> <svg xmlns="http://www.w3.org/2000/svg" width="985" height="321" viewBox="0 0 985 321" fill="none"><path d="M26.49 192.74V110H0.210022V73.49H26.49V30.13H68.49V73.49H100.69V110H68.49V181.62C68.49 191.47 73.75 199.03 82.95 199.03C89.19 199.03 95.1 196.73 97.4 194.43L106.27 225.96C100.03 231.55 88.86 236.15 71.45 236.15C42.25 236.1 26.49 221 26.49 192.74Z" fill="#202620"></path><path d="M220 215.73C209.16 228.54 190.44 236.1 169.74 236.1C144.45 236.1 114.55 219.02 114.55 183.54C114.55 146.42 144.45 132.95 169.74 132.95C190.74 132.95 209.49 139.52 220 152.33V130.33C220 114.24 206.2 103.72 185.18 103.72C168.1 103.72 152.33 109.96 138.86 122.45L123.1 94.52C142.48 77.43 167.44 69.52 192.41 69.52C228.54 69.52 261.72 83.97 261.72 129.63V232.13H220V215.73ZM220 174.34C213.1 165.14 200 160.54 186.5 160.54C170.07 160.54 156.6 169.08 156.6 184.54C156.6 199.33 170.07 207.87 186.5 207.87C199.96 207.87 213.1 203.27 220 194.07V174.34Z" fill="#202620"></path><path d="M268.82 73.49H313.49L354.88 183.87L396.27 73.49H441.27L377.55 232.16H332.55L268.82 73.49Z" fill="#202620"></path><path d="M451.75 25.2C451.75 20.2555 453.216 15.422 455.963 11.3108C458.71 7.19954 462.615 3.99522 467.183 2.10303C471.751 0.21084 476.778 -0.284238 481.627 0.680393C486.477 1.64502 490.931 4.02603 494.428 7.52234C497.924 11.0187 500.305 15.4732 501.27 20.3228C502.234 25.1723 501.739 30.199 499.847 34.7671C497.955 39.3353 494.751 43.2397 490.639 45.9868C486.528 48.7338 481.695 50.2 476.75 50.2C470.133 50.1555 463.8 47.5073 459.122 42.8285C454.443 38.1497 451.795 31.8167 451.75 25.2ZM456 73.49H497.72V232.16H456V73.49Z" fill="#202620"></path><path d="M537.91 182.22C549.41 193.07 573.06 203.9 592.77 203.9C610.84 203.9 619.38 197.66 619.38 187.81C619.38 176.64 605.58 172.7 587.52 169.08C560.25 163.83 525.1 157.26 525.1 119.48C525.1 92.87 548.43 69.55 590.1 69.55C617.04 69.55 638.39 78.75 654.16 91.23L637.41 119.81C627.88 109.63 609.81 101.41 590.41 101.41C575.3 101.41 565.41 107 565.41 116.2C565.41 126.05 577.89 129.66 595.63 133.28C622.89 138.53 659.36 145.76 659.36 185.18C659.36 214.09 634.72 236.1 590.7 236.1C563.11 236.1 536.5 226.9 519.75 211.46L537.91 182.22Z" fill="#202620"></path><path d="M757.94 69.55C790.46 69.55 810.17 83.68 820.68 98.13L793.41 123.75C785.86 112.58 774.41 106.67 759.91 106.67C734.61 106.67 716.91 125.07 716.91 152.67C716.91 180.27 734.65 198.99 759.91 198.99C766.466 199.107 772.95 197.61 778.792 194.632C784.634 191.654 789.654 187.285 793.41 181.91L820.68 207.2C810.17 222 790.46 236.1 757.94 236.1C708.94 236.1 673.84 201.61 673.84 152.66C673.84 104 709 69.55 757.94 69.55Z" fill="#202620"></path><path d="M938.31 215.73C927.47 228.54 908.75 236.1 888.05 236.1C862.76 236.1 832.87 219.02 832.87 183.54C832.87 146.42 862.76 132.95 888.05 132.95C909.05 132.95 927.8 139.52 938.31 152.33V130.33C938.31 114.24 924.52 103.72 903.49 103.72C886.41 103.72 870.64 109.96 857.17 122.45L841.41 94.53C860.79 77.44 885.75 69.53 910.72 69.53C946.85 69.53 980.03 83.98 980.03 129.64V232.14H938.31V215.73ZM938.31 174.34C931.41 165.14 918.31 160.54 904.81 160.54C888.38 160.54 874.91 169.08 874.91 184.54C874.91 199.33 888.38 207.87 904.81 207.87C918.27 207.87 931.41 203.27 938.31 194.07V174.34Z" fill="#202620"></path><path d="M177.534 302H183.238L166.56 260.646H160.174L143.558 302H149.262L152.92 292.824H173.876L177.534 302ZM163.398 265.234L172.326 288.236H154.408L163.398 265.234ZM260.519 302H284.885V297.412H265.665V260.646H260.519V302ZM302.448 302.744C311.562 302.744 317.266 295.676 317.266 286.996C317.266 278.316 311.562 271.31 302.448 271.31C293.334 271.31 287.63 278.316 287.63 286.996C287.63 295.676 293.334 302.744 302.448 302.744ZM302.448 298.59C296.062 298.59 292.466 293.134 292.466 286.996C292.466 280.92 296.062 275.464 302.448 275.464C308.834 275.464 312.368 280.92 312.368 286.996C312.368 293.134 308.834 298.59 302.448 298.59ZM322.676 309.502L321.932 313.718C322.8 313.966 324.35 314.152 325.342 314.152C329.31 314.09 332.348 312.416 334.146 308.076L349.15 272.054H344.066L334.146 296.606L324.164 272.054H319.142L331.666 302.31L329.682 306.836C328.628 309.316 327.264 309.998 325.218 309.998C324.474 309.998 323.358 309.812 322.676 309.502ZM371.485 302H376.135V281.416C376.135 274.162 370.865 271.31 364.541 271.31C359.643 271.31 355.799 272.922 352.575 276.27L354.745 279.494C357.411 276.642 360.325 275.34 363.921 275.34C368.261 275.34 371.485 277.634 371.485 281.664V287.058C369.067 284.268 365.657 282.966 361.565 282.966C356.481 282.966 351.087 286.128 351.087 292.824C351.087 299.334 356.481 302.744 361.565 302.744C365.595 302.744 369.005 301.318 371.485 298.59V302ZM371.485 295.676C369.687 298.156 366.525 299.396 363.239 299.396C358.899 299.396 355.861 296.668 355.861 292.886C355.861 289.042 358.899 286.314 363.239 286.314C366.525 286.314 369.687 287.554 371.485 290.034V295.676ZM384.216 302H388.866V260.646H384.216V302ZM404.466 302.744C407.194 302.744 408.868 301.938 410.046 300.822L408.682 297.35C408.062 298.032 406.822 298.59 405.52 298.59C403.474 298.59 402.482 296.978 402.482 294.746V276.146H408.558V272.054H402.482V263.87H397.832V272.054H392.872V276.146H397.832V295.738C397.832 300.202 400.064 302.744 404.466 302.744ZM412.957 309.502L412.213 313.718C413.081 313.966 414.631 314.152 415.623 314.152C419.591 314.09 422.629 312.416 424.427 308.076L439.431 272.054H434.347L424.427 296.606L414.445 272.054H409.423L421.947 302.31L419.963 306.836C418.909 309.316 417.545 309.998 415.499 309.998C414.755 309.998 413.639 309.812 412.957 309.502ZM468.202 302H473.348V265.234H486.492V260.646H455.12V265.234H468.202V302ZM483.024 286.996C483.024 296.358 489.41 302.744 498.276 302.744C503.174 302.744 507.204 301.132 510.18 298.156L507.948 295.118C505.592 297.536 502.12 298.9 498.71 298.9C492.262 298.9 488.294 294.188 487.922 288.546H512.164V287.368C512.164 278.378 506.832 271.31 497.78 271.31C489.224 271.31 483.024 278.316 483.024 286.996ZM497.718 275.154C504.538 275.154 507.514 280.672 507.576 285.136H487.922C488.17 280.548 491.332 275.154 497.718 275.154ZM516.72 286.996C516.72 295.924 522.734 302.744 531.662 302.744C537.118 302.744 540.342 300.512 542.636 297.536L539.536 294.684C537.552 297.35 535.01 298.59 531.91 298.59C525.524 298.59 521.556 293.63 521.556 286.996C521.556 280.362 525.524 275.464 531.91 275.464C535.01 275.464 537.552 276.642 539.536 279.37L542.636 276.518C540.342 273.542 537.118 271.31 531.662 271.31C522.734 271.31 516.72 278.13 516.72 286.996ZM568.187 302H572.837V280.858C572.837 274.348 569.551 271.31 563.289 271.31C558.763 271.31 554.671 273.914 552.563 276.394V260.646H547.913V302H552.563V280.114C554.361 277.696 557.833 275.464 561.429 275.464C565.459 275.464 568.187 277.014 568.187 282.284V302ZM601.094 302H605.744V280.982C605.744 274.472 602.458 271.31 596.196 271.31C591.732 271.31 587.64 273.914 585.532 276.394V272.054H580.882V302H585.532V280.114C587.268 277.696 590.74 275.464 594.398 275.464C598.428 275.464 601.094 277.138 601.094 282.408V302ZM626.873 302.744C635.987 302.744 641.691 295.676 641.691 286.996C641.691 278.316 635.987 271.31 626.873 271.31C617.759 271.31 612.055 278.316 612.055 286.996C612.055 295.676 617.759 302.744 626.873 302.744ZM626.873 298.59C620.487 298.59 616.891 293.134 616.891 286.996C616.891 280.92 620.487 275.464 626.873 275.464C633.259 275.464 636.793 280.92 636.793 286.996C636.793 293.134 633.259 298.59 626.873 298.59ZM648.031 302H652.681V260.646H648.031V302ZM673.799 302.744C682.913 302.744 688.617 295.676 688.617 286.996C688.617 278.316 682.913 271.31 673.799 271.31C664.685 271.31 658.981 278.316 658.981 286.996C658.981 295.676 664.685 302.744 673.799 302.744ZM673.799 298.59C667.413 298.59 663.817 293.134 663.817 286.996C663.817 280.92 667.413 275.464 673.799 275.464C680.185 275.464 683.719 280.92 683.719 286.996C683.719 293.134 680.185 298.59 673.799 298.59ZM694.895 309.688C698.429 313.16 701.901 314.152 706.985 314.152C714.301 314.152 721.245 311.052 721.245 301.132V272.054H716.595V276.58C714.177 273.294 710.581 271.31 706.551 271.31C698.677 271.31 693.221 277.262 693.221 286.872C693.221 296.544 698.739 302.372 706.551 302.372C710.767 302.372 714.425 300.078 716.595 297.04V301.318C716.595 307.89 711.945 310.308 706.985 310.308C702.707 310.308 699.731 309.192 697.251 306.216L694.895 309.688ZM716.595 293.382C714.983 295.986 711.387 298.28 707.667 298.28C701.653 298.28 698.057 293.444 698.057 286.872C698.057 280.238 701.653 275.464 707.667 275.464C711.387 275.464 714.983 277.696 716.595 280.3V293.382ZM728.389 309.502L727.645 313.718C728.513 313.966 730.063 314.152 731.055 314.152C735.023 314.09 738.061 312.416 739.859 308.076L754.863 272.054H749.779L739.859 296.606L729.877 272.054H724.855L737.379 302.31L735.395 306.836C734.341 309.316 732.977 309.998 730.931 309.998C730.187 309.998 729.071 309.812 728.389 309.502ZM773.404 302H778.55V285.57H790.02C798.204 285.57 802.978 279.866 802.978 273.108C802.978 266.35 798.328 260.646 790.02 260.646H773.404V302ZM797.646 273.108C797.646 277.758 794.298 280.982 789.4 280.982H778.55V265.234H789.4C794.298 265.234 797.646 268.458 797.646 273.108ZM808.367 302H813.017V260.646H808.367V302ZM839.776 302H844.426V281.416C844.426 274.162 839.156 271.31 832.832 271.31C827.934 271.31 824.09 272.922 820.866 276.27L823.036 279.494C825.702 276.642 828.616 275.34 832.212 275.34C836.552 275.34 839.776 277.634 839.776 281.664V287.058C837.358 284.268 833.948 282.966 829.856 282.966C824.772 282.966 819.378 286.128 819.378 292.824C819.378 299.334 824.772 302.744 829.856 302.744C833.886 302.744 837.296 301.318 839.776 298.59V302ZM839.776 295.676C837.978 298.156 834.816 299.396 831.53 299.396C827.19 299.396 824.152 296.668 824.152 292.886C824.152 289.042 827.19 286.314 831.53 286.314C834.816 286.314 837.978 287.554 839.776 290.034V295.676ZM860.072 302.744C862.8 302.744 864.474 301.938 865.652 300.822L864.288 297.35C863.668 298.032 862.428 298.59 861.126 298.59C859.08 298.59 858.088 296.978 858.088 294.746V276.146H864.164V272.054H858.088V263.87H853.438V272.054H848.478V276.146H853.438V295.738C853.438 300.202 855.67 302.744 860.072 302.744ZM870.794 302H875.444V276.146H881.52V272.054H875.444V269.76C875.444 265.978 877.118 263.87 880.156 263.87C881.21 263.87 882.078 264.118 882.822 264.552L884 261.08C882.822 260.336 881.21 260.026 879.474 260.026C874.266 260.026 870.794 263.56 870.794 269.76V272.054H865.834V276.146H870.794V302ZM898.893 302.744C908.007 302.744 913.711 295.676 913.711 286.996C913.711 278.316 908.007 271.31 898.893 271.31C889.779 271.31 884.075 278.316 884.075 286.996C884.075 295.676 889.779 302.744 898.893 302.744ZM898.893 298.59C892.507 298.59 888.911 293.134 888.911 286.996C888.911 280.92 892.507 275.464 898.893 275.464C905.279 275.464 908.813 280.92 908.813 286.996C908.813 293.134 905.279 298.59 898.893 298.59ZM920.051 302H924.701V280.796C926.065 278.378 929.971 276.022 932.823 276.022C933.567 276.022 934.125 276.084 934.683 276.208V271.434C930.591 271.434 927.119 273.728 924.701 276.89V272.054H920.051V302ZM975.422 302H980.072V280.362C980.072 274.348 977.158 271.31 971.702 271.31C967.362 271.31 963.332 274.162 961.658 276.89C960.79 273.79 958.186 271.31 953.598 271.31C949.196 271.31 945.166 274.472 943.926 276.394V272.054H939.276V302H943.926V280.114C945.538 277.696 948.762 275.464 951.8 275.464C955.706 275.464 957.318 277.882 957.318 281.664V302H961.968V280.052C963.518 277.696 966.804 275.464 969.904 275.464C973.748 275.464 975.422 277.882 975.422 281.664V302Z" fill="black"></path><path d="M200.227 286.996C200.227 295.924 206.241 302.744 215.169 302.744C220.625 302.744 223.849 300.512 226.143 297.536L223.043 294.684C221.059 297.35 218.517 298.59 215.417 298.59C209.031 298.59 205.063 293.63 205.063 286.996C205.063 280.362 209.031 275.464 215.417 275.464C218.517 275.464 221.059 276.642 223.043 279.37L226.143 276.518C223.849 273.542 220.625 271.31 215.169 271.31C206.241 271.31 200.227 278.13 200.227 286.996ZM250.826 302H256.22L244.688 286.624L255.538 272.054H250.144L241.836 283.462L233.528 272.054H228.134L238.984 286.624L227.514 302H232.846L241.836 289.724L250.826 302Z" fill="#39C5F3"></path></svg> 